<?xml version="1.0" encoding="UTF-8"?>
<svg width="531px" height="501px" viewBox="0 0 531 501" version="1.1" xmlns="http://www.w3.org/2000/svg" xmlns:xlink="http://www.w3.org/1999/xlink">
    <!-- Generator: Sketch 46 (44423) - http://www.bohemiancoding.com/sketch -->
    <title>headstock icon</title>
    <desc>Created with Sketch.</desc>
    <defs></defs>
    <g id="Page-1" stroke="none" stroke-width="1" fill="none" fill-rule="evenodd">
        <rect id="Rectangle" fill="#363636" x="-269" y="-107" width="1028" height="866"></rect>
        <path d="M405.5,213.5 L395.5,229.5" id="Line-4" stroke="#FFFFFF" stroke-width="17" stroke-linecap="square"></path>
        <path d="M416.5,222.5 L406.5,237.5" id="Line-5" stroke="#FFFFFF" stroke-width="17" stroke-linecap="square"></path>
        <path d="M321.5,145.5 L307.5,165.5" id="Line-3" stroke="#FFFFFF" stroke-width="17" stroke-linecap="square"></path>
        <path d="M332.5,153.5 L318.5,173.5" id="Line-3" stroke="#FFFFFF" stroke-width="17" stroke-linecap="square"></path>
        <path d="M235.5,77.5 L223.5,94.5" id="Line" stroke="#FFFFFF" stroke-width="17" stroke-linecap="square"></path>
        <path d="M247.5,85.5 L234.5,103.5" id="Line-2" stroke="#FFFFFF" stroke-width="17" stroke-linecap="square"></path>
        <path d="M237.422852,65.9824219 L234.99707,46.7304688 L252.532227,11.4609375 L280.381836,22.4746094 L296.800781,43.5117188 L276.941406,70.9130859 L257.816406,78.4277344 C259.089647,82.1691918 259.089647,84.4842959 257.816406,85.3730469 C254.29362,87.8320312 248.925781,86.8863932 241.712891,82.5361328 C234.759115,77.2646484 231.701172,72.7714844 232.539063,69.0566406 C232.881958,67.5363927 234.509887,66.5116531 237.422852,65.9824219 Z" id="Path" stroke="#FFFFFF" stroke-width="17"></path>
        <path d="M408.018945,203.521484 L405.593164,184.269531 L423.12832,149 L450.97793,160.013672 L467.396875,181.050781 L447.5375,208.452148 L428.4125,215.966797 C429.685741,219.708254 429.685741,222.023358 428.4125,222.912109 C424.889713,225.371094 419.521875,224.425456 412.308984,220.075195 C405.355208,214.803711 402.297265,210.310547 403.135156,206.595703 C403.478051,205.075455 405.105981,204.050716 408.018945,203.521484 Z" id="Path" stroke="#FFFFFF" stroke-width="17"></path>
        <path d="M323.018945,134.521484 L320.593164,115.269531 L338.12832,80 L365.97793,91.0136719 L382.396875,112.050781 L362.5375,139.452148 L343.4125,146.966797 C344.685741,150.708254 344.685741,153.023358 343.4125,153.912109 C339.889713,156.371094 334.521875,155.425456 327.308984,151.075195 C320.355208,145.803711 317.297265,141.310547 318.135156,137.595703 C318.478051,136.075455 320.105981,135.050716 323.018945,134.521484 Z" id="Path" stroke="#FFFFFF" stroke-width="17"></path>
        <path d="M148.510742,22.5771484 C193.845049,68.9883622 241.827145,112.595459 292.457031,153.398438 C343.820635,194.792724 397.832028,233.382893 454.491211,269.168945 C457.750977,294.448242 464.320964,314.338542 474.201172,328.839844 C486.245107,346.516874 501.193023,361.58328 519.044922,374.039063 L442.71875,489.056641 C425.067089,477.273175 407.657259,469.031964 390.489258,464.333008 C372.22041,459.332745 354.193392,457.874737 336.408203,459.958984 C292.980267,418.82589 246.264446,380.758181 196.260742,345.755859 C138.134889,305.068077 77.4913342,267.196332 14.3300781,232.140625 C25.7663651,220.515692 33.4922766,207.599351 37.5078125,193.391602 C43.9892578,170.458984 41.568607,159.855326 51.6396484,134.918945 C53.5966797,130.073242 59.4251302,125.30013 69.125,120.599609 C67.6132743,112.36764 69.1262951,105.79212 73.6640625,100.873047 C95.1562395,77.574898 103.901919,81.5190151 125.961914,57.5087891 C132.700195,50.1748047 140.216471,38.5309245 148.510742,22.5771484 Z" id="Path-2" stroke="#FFFFFF" stroke-width="17"></path>
        <path d="M69.2734375,343.589844 L56.3408203,322.220703 L77.4003906,295.277344 L94.8261719,289.680664 C93.6921161,287.51007 93.3337177,285.644836 93.7509766,284.084961 C94.1325458,282.658508 95.2897724,281.537414 97.2226562,280.72168 L122.598633,296.568359 C122.049161,298.523764 121.32325,299.854819 120.420898,300.561523 C119.074226,301.616212 117.382495,302.023764 115.345703,301.78418 L115.345703,321.19043 L98.3115234,356.880859 L69.2734375,343.589844 Z" id="Path-3" stroke="#FFFFFF" stroke-width="17"></path>
        <path d="M155.451172,404.244141 L141.761719,383.292969 L165.05957,354.555664 L182.485352,350.175781 C182.068093,347.10675 182.068093,344.792297 182.485352,343.232422 C182.866921,341.805969 184.535541,340.71938 187.491211,339.972656 L208.080078,354.555664 C208.080078,357.644206 207.684245,359.645182 206.892578,360.558594 C205.744613,361.883096 203.926254,362.939411 201.4375,363.727539 L203.004883,380.46875 L182.485352,417.313477 L155.451172,404.244141 Z" id="Path-3" stroke="#FFFFFF" stroke-width="17"></path>
        <path d="M244.283203,469.067383 L232.291016,447.496094 L253.297852,421.583008 L270.723633,414.204102 C270.306374,412.309549 270.306374,410.582336 270.723633,409.022461 C271.105202,407.596008 272.298887,406.607726 274.304688,406.057617 L295.882812,423.010742 C295.904948,423.920898 295.520182,424.832682 294.728516,425.746094 C293.580551,427.070596 291.623194,427.731403 288.856445,427.728516 L291.243164,447.496094 L272.006836,480.351562 L244.283203,469.067383 Z" id="Path-3" stroke="#FFFFFF" stroke-width="17"></path>
        <circle id="Oval" stroke="#FFFFFF" stroke-width="17" cx="274.5" cy="195.5" r="8.5"></circle>
        <circle id="Oval" stroke="#FFFFFF" stroke-width="17" cx="360.5" cy="263.5" r="8.5"></circle>
        <circle id="Oval" stroke="#FFFFFF" stroke-width="17" cx="189.5" cy="127.5" r="8.5"></circle>
        <circle id="Oval" stroke="#FFFFFF" stroke-width="17" cx="287.5" cy="358.5" r="8.5"></circle>
        <circle id="Oval" stroke="#FFFFFF" stroke-width="17" cx="198.5" cy="296.5" r="8.5"></circle>
        <circle id="Oval" stroke="#FFFFFF" stroke-width="17" cx="109.5" cy="233.5" r="8.5"></circle>
        <path d="M334.241211,331.335938 C329.030924,325.375 328.317383,320.029297 332.100586,315.298828 C335.883789,310.568359 340.708008,309.80599 346.573242,313.011719 C357.968357,308.730447 366.593357,307.163389 372.448242,308.310547 C388.626953,311.480469 398.204102,330.649414 452.384766,365.798828 C464.583319,373.712574 478.098293,380.225269 492.929687,385.336914 C492.141307,389.759732 490.144888,394.019497 486.94043,398.116211 C483.609732,402.374315 479.248403,406.50843 473.856445,410.518555 C478.562174,417.895508 479.509115,423.611979 476.697266,427.667969 C473.885417,431.723958 468.225911,433.163086 459.71875,431.985352 C458.228229,436.987629 456.184935,441.942707 453.588867,446.850586 C451.193399,451.379231 447.589557,455.46647 442.777344,459.112305 C435.059806,445.532833 425.103751,433.023393 412.90918,421.583984 C390.467638,400.53216 364.290039,386.949219 342.327148,365.798828 C334.649624,358.405328 331.954312,346.917698 334.241211,331.335938 Z" id="Path-4" stroke="#FFFFFF" stroke-width="17"></path>
        <circle id="Oval-2" stroke="#FFFFFF" stroke-width="17" cx="340" cy="321" r="5"></circle>
        <circle id="Oval-2" stroke="#FFFFFF" stroke-width="17" cx="466" cy="421" r="5"></circle>
    </g>
</svg>